<?xml version="1.0" encoding="utf-8"?>
<!-- Generator: Adobe Illustrator 23.0.6, SVG Export Plug-In . SVG Version: 6.00 Build 0)  -->
<svg version="1.1" id="圖層_1" xmlns="http://www.w3.org/2000/svg" xmlns:xlink="http://www.w3.org/1999/xlink" x="0px" y="0px"
	 viewBox="0 0 1920 822" style="enable-background:new 0 0 1920 822;" xml:space="preserve">
<style type="text/css">
	.st0{display:none;fill:#141316;}
	.st1{fill:none;stroke:#3B9C60;stroke-opacity:0.16;}
	.st2{fill:none;stroke:#3B9C60;stroke-width:2;stroke-opacity:0.16;}
	.st3{fill:none;stroke:#3B9C60;stroke-opacity:0.31;}
	.st4{fill:none;stroke:#3B9C60;stroke-width:2;stroke-opacity:0.31;}
	.st5{fill:none;stroke:#3B9C60;stroke-opacity:8.000000e-02;}
	.st6{fill:none;stroke:#3B9C60;stroke-width:2;stroke-opacity:8.000000e-02;}
</style>
<rect class="st0" width="1920" height="822"/>
<g>
	<path class="st1" d="M120,0l840,411"/>
	<path class="st1" d="M126,0l834,411"/>
	<path class="st1" d="M132,0l828,411"/>
	<path class="st1" d="M138,0l822,411"/>
	<path class="st1" d="M144,0l816,411"/>
	<path class="st1" d="M150,0l810,411"/>
	<path class="st1" d="M156,0l804,411"/>
	<path class="st1" d="M162,0l798,411"/>
	<path class="st1" d="M168,0l792,411"/>
	<path class="st1" d="M174,0l786,411"/>
	<path class="st1" d="M180,0l780,411"/>
	<path class="st1" d="M186,0l774,411"/>
	<path class="st1" d="M192,0l768,411"/>
	<path class="st1" d="M198,0l762,411"/>
	<path class="st1" d="M204,0l756,411"/>
	<path class="st1" d="M210,0l750,411"/>
	<path class="st1" d="M216,0l744,411"/>
	<path class="st1" d="M222,0l738,411"/>
	<path class="st1" d="M228,0l732,411"/>
	<path class="st2" d="M237,0l723,411"/>
	<path class="st2" d="M243,0l717,411"/>
	<path class="st2" d="M249,0l711,411"/>
	<path class="st2" d="M255,0l705,411"/>
	<path class="st2" d="M261,0l699,411"/>
	<path class="st2" d="M267,0l693,411"/>
	<path class="st2" d="M273,0l687,411"/>
	<path class="st2" d="M279,0l681,411"/>
	<path class="st2" d="M285,0l675,411"/>
	<path class="st2" d="M291,0l669,411"/>
	<path class="st2" d="M297,0l663,411"/>
	<path class="st2" d="M303,0l657,411"/>
	<path class="st2" d="M309,0l651,411"/>
	<path class="st2" d="M315,0l645,411"/>
	<path class="st2" d="M321,0l639,411"/>
	<path class="st2" d="M327,0l633,411"/>
	<path class="st2" d="M333,0l627,411"/>
	<path class="st2" d="M339,0l621,411"/>
	<path class="st2" d="M345,0l615,411"/>
	<path class="st2" d="M351,0l609,411"/>
	<path class="st2" d="M357,0l603,411"/>
	<path class="st2" d="M363,0l597,411"/>
	<path class="st2" d="M369,0l591,411"/>
	<path class="st2" d="M375,0l585,411"/>
	<path class="st2" d="M381,0l579,411"/>
	<path class="st2" d="M387,0l573,411"/>
	<path class="st2" d="M393,0l567,411"/>
	<path class="st2" d="M399,0l561,411"/>
	<path class="st2" d="M405,0l555,411"/>
	<path class="st2" d="M411,0l549,411"/>
	<path class="st2" d="M417,0l543,411"/>
	<path class="st2" d="M423,0l537,411"/>
	<path class="st2" d="M429,0l531,411"/>
	<path class="st2" d="M435,0l525,411"/>
	<path class="st2" d="M441,0l519,411"/>
	<path class="st2" d="M447,0l513,411"/>
	<path class="st2" d="M453,0l507,411"/>
	<path class="st2" d="M459,0l501,411"/>
	<path class="st2" d="M465,0l495,411"/>
	<path class="st2" d="M471,0l489,411"/>
	<path class="st2" d="M477,0l483,411"/>
	<path class="st1" d="M483,0l477,411"/>
	<path class="st1" d="M489,0l471,411"/>
	<path class="st1" d="M495,0l465,411"/>
	<path class="st1" d="M501,0l459,411"/>
	<path class="st1" d="M507,0l453,411"/>
	<path class="st1" d="M513,0l447,411"/>
	<path class="st1" d="M519,0l441,411"/>
	<path class="st1" d="M525,0l435,411"/>
	<path class="st1" d="M531,0l429,411"/>
	<path class="st1" d="M537,0l423,411"/>
	<path class="st1" d="M543,0l417,411"/>
	<path class="st1" d="M549,0l411,411"/>
	<path class="st1" d="M555,0l405,411"/>
	<path class="st1" d="M561,0l399,411"/>
	<path class="st1" d="M567,0l393,411"/>
	<path class="st1" d="M573,0l387,411"/>
	<path class="st1" d="M579,0l381,411"/>
	<path class="st1" d="M585,0l375,411"/>
	<path class="st1" d="M591,0l369,411"/>
	<path class="st1" d="M597,0l363,411"/>
	<path class="st1" d="M603,0l357,411"/>
	<path class="st1" d="M609,0l351,411"/>
	<path class="st1" d="M615,0l345,411"/>
	<path class="st1" d="M621,0l339,411"/>
	<path class="st1" d="M627,0l333,411"/>
	<path class="st1" d="M633,0l327,411"/>
	<path class="st1" d="M639,0l321,411"/>
	<path class="st1" d="M645,0l315,411"/>
	<path class="st1" d="M651,0l309,411"/>
	<path class="st1" d="M657,0l303,411"/>
	<path class="st1" d="M663,0l297,411"/>
	<path class="st1" d="M669,0l291,411"/>
	<path class="st1" d="M675,0l285,411"/>
	<path class="st1" d="M681,0l279,411"/>
	<path class="st1" d="M687,0l273,411"/>
	<path class="st1" d="M693,0l267,411"/>
	<path class="st1" d="M699,0l261,411"/>
	<path class="st1" d="M705,0l255,411"/>
	<path class="st1" d="M711,0l249,411"/>
	<path class="st1" d="M717,0l243,411"/>
</g>
<g>
	<path class="st3" d="M120,823l840-412"/>
	<path class="st3" d="M126,823l834-412"/>
	<path class="st3" d="M132,823l828-412"/>
	<path class="st3" d="M138,823l822-412"/>
	<path class="st3" d="M144,823l816-412"/>
	<path class="st3" d="M150,823l810-412"/>
	<path class="st3" d="M156,823l804-412"/>
	<path class="st3" d="M162,823l798-412"/>
	<path class="st3" d="M168,823l792-412"/>
	<path class="st3" d="M174,823l786-412"/>
	<path class="st3" d="M180,823l780-412"/>
	<path class="st3" d="M186,823l774-412"/>
	<path class="st3" d="M192,823l768-412"/>
	<path class="st3" d="M198,823l762-412"/>
	<path class="st3" d="M204,823l756-412"/>
	<path class="st3" d="M210,823l750-412"/>
	<path class="st3" d="M216,823l744-412"/>
	<path class="st3" d="M222,823l738-412"/>
	<path class="st3" d="M228,823l732-412"/>
	<path class="st4" d="M237,823l723-412"/>
	<path class="st4" d="M243,823l717-412"/>
	<path class="st4" d="M249,823l711-412"/>
	<path class="st4" d="M255,823l705-412"/>
	<path class="st4" d="M261,823l699-412"/>
	<path class="st4" d="M267,823l693-412"/>
	<path class="st4" d="M273,823l687-412"/>
	<path class="st4" d="M279,823l681-412"/>
	<path class="st4" d="M285,823l675-412"/>
	<path class="st4" d="M291,823l669-412"/>
	<path class="st4" d="M297,823l663-412"/>
	<path class="st4" d="M303,823l657-412"/>
	<path class="st4" d="M309,823l651-412"/>
	<path class="st4" d="M315,823l645-412"/>
	<path class="st4" d="M321,823l639-412"/>
	<path class="st4" d="M327,823l633-412"/>
	<path class="st4" d="M333,823l627-412"/>
	<path class="st4" d="M339,823l621-412"/>
	<path class="st4" d="M345,823l615-412"/>
	<path class="st4" d="M351,823l609-412"/>
	<path class="st4" d="M357,823l603-412"/>
	<path class="st4" d="M363,823l597-412"/>
	<path class="st4" d="M369,823l591-412"/>
	<path class="st4" d="M375,823l585-412"/>
	<path class="st4" d="M381,823l579-412"/>
	<path class="st4" d="M387,823l573-412"/>
	<path class="st4" d="M393,823l567-412"/>
	<path class="st4" d="M399,823l561-412"/>
	<path class="st4" d="M405,823l555-412"/>
	<path class="st4" d="M411,823l549-412"/>
	<path class="st4" d="M417,823l543-412"/>
	<path class="st4" d="M423,823l537-412"/>
	<path class="st4" d="M429,823l531-412"/>
	<path class="st4" d="M435,823l525-412"/>
	<path class="st4" d="M441,823l519-412"/>
	<path class="st4" d="M447,823l513-412"/>
	<path class="st4" d="M453,823l507-412"/>
	<path class="st4" d="M459,823l501-412"/>
	<path class="st4" d="M465,823l495-412"/>
	<path class="st4" d="M471,823l489-412"/>
	<path class="st4" d="M477,823l483-412"/>
	<path class="st3" d="M483,823l477-412"/>
	<path class="st3" d="M489,823l471-412"/>
	<path class="st3" d="M495,823l465-412"/>
	<path class="st3" d="M501,823l459-412"/>
	<path class="st3" d="M507,823l453-412"/>
	<path class="st3" d="M513,823l447-412"/>
	<path class="st3" d="M519,823l441-412"/>
	<path class="st3" d="M525,823l435-412"/>
	<path class="st3" d="M531,823l429-412"/>
	<path class="st3" d="M537,823l423-412"/>
	<path class="st3" d="M543,823l417-412"/>
	<path class="st3" d="M549,823l411-412"/>
	<path class="st3" d="M555,823l405-412"/>
	<path class="st3" d="M561,823l399-412"/>
	<path class="st3" d="M567,823l393-412"/>
	<path class="st3" d="M573,823l387-412"/>
	<path class="st3" d="M579,823l381-412"/>
	<path class="st3" d="M585,823l375-412"/>
	<path class="st3" d="M591,823l369-412"/>
	<path class="st3" d="M597,823l363-412"/>
	<path class="st3" d="M603,823l357-412"/>
	<path class="st3" d="M609,823l351-412"/>
	<path class="st3" d="M615,823l345-412"/>
	<path class="st3" d="M621,823l339-412"/>
	<path class="st3" d="M627,823l333-412"/>
	<path class="st3" d="M633,823l327-412"/>
	<path class="st3" d="M639,823l321-412"/>
	<path class="st3" d="M645,823l315-412"/>
	<path class="st3" d="M651,823l309-412"/>
	<path class="st3" d="M657,823l303-412"/>
	<path class="st3" d="M663,823l297-412"/>
	<path class="st3" d="M669,823l291-412"/>
	<path class="st3" d="M675,823l285-412"/>
	<path class="st3" d="M681,823l279-412"/>
	<path class="st3" d="M687,823l273-412"/>
	<path class="st3" d="M693,823l267-412"/>
	<path class="st3" d="M699,823l261-412"/>
	<path class="st3" d="M705,823l255-412"/>
	<path class="st3" d="M711,823l249-412"/>
	<path class="st3" d="M717,823l243-412"/>
</g>
<g>
	<path class="st5" d="M1921,770.6L960,411"/>
	<path class="st5" d="M1921,764.6L960,411"/>
	<path class="st5" d="M1921,758.6L960,411"/>
	<path class="st5" d="M1921,752.6L960,411"/>
	<path class="st5" d="M1921,746.6L960,411"/>
	<path class="st5" d="M1921,740.6L960,411"/>
	<path class="st5" d="M1921,734.6L960,411"/>
	<path class="st5" d="M1921,728.6L960,411"/>
	<path class="st5" d="M1921,722.6L960,411"/>
	<path class="st6" d="M1921,722.2L960,411"/>
	<path class="st6" d="M1921,716.2L960,411"/>
	<path class="st6" d="M1921,710.2L960,411"/>
	<path class="st6" d="M1921,704.2L960,411"/>
	<path class="st6" d="M1921,698.2L960,411"/>
	<path class="st6" d="M1921,692.2L960,411"/>
	<path class="st6" d="M1921,686.2L960,411"/>
	<path class="st6" d="M1921,680.2L960,411"/>
	<path class="st6" d="M1921,674.2L960,411"/>
	<path class="st6" d="M1921,668.2L960,411"/>
	<path class="st6" d="M1921,662.2L960,411"/>
	<path class="st6" d="M1921,656.2L960,411"/>
	<path class="st6" d="M1921,650.2L960,411"/>
	<path class="st6" d="M1921,644.2L960,411"/>
	<path class="st6" d="M1921,638.2L960,411"/>
	<path class="st6" d="M1921,632.2L960,411"/>
	<path class="st6" d="M1921,626.2L960,411"/>
	<path class="st6" d="M1921,620.2L960,411"/>
	<path class="st5" d="M1921,613.5L960,411"/>
	<path class="st5" d="M1921,607.5L960,411"/>
	<path class="st5" d="M1921,601.5L960,411"/>
	<path class="st5" d="M1921,595.5L960,411"/>
	<path class="st5" d="M1921,589.5L960,411"/>
	<path class="st5" d="M1921,583.5L960,411"/>
	<path class="st5" d="M1921,577.5L960,411"/>
	<path class="st5" d="M1921,571.5L960,411"/>
	<path class="st5" d="M1921,565.5L960,411"/>
	<path class="st5" d="M1921,559.5L960,411"/>
	<path class="st5" d="M1921,553.5L960,411"/>
	<path class="st5" d="M1921,547.5L960,411"/>
	<path class="st5" d="M1921,541.5L960,411"/>
	<path class="st5" d="M1921,535.5L960,411"/>
	<path class="st5" d="M1921,529.5L960,411"/>
	<path class="st5" d="M1921,523.5L960,411"/>
	<path class="st5" d="M1921,517.5L960,411"/>
</g>
</svg>
