<svg xmlns="http://www.w3.org/2000/svg" viewBox="0 0 146.26 40.06"><defs><style>.cls-1{fill:#231815;}</style></defs><title>Define-Dark</title><g id="圖層_2" data-name="圖層 2"><g id="圖層_2-2" data-name="圖層 2"><path class="cls-1" d="M74.63,15.54c0-4.86,2.27-9,8.54-9a12.67,12.67,0,0,1,4.61.81l-1.27,5.31a6.42,6.42,0,0,0-2.31-.49c-1.55,0-2.5.85-2.5,3.16v1.1h4v5.63h-4V39.49H74.63V22.07h-3V16.72l3-.24Z"/><rect class="cls-1" x="90" y="16.44" width="7.07" height="23.06"/><path class="cls-1" d="M101.89,16.44h5.76l.47,2.87h.16c1.87-1.86,4.17-3.44,7.23-3.44,4.92,0,7,3.61,7,9.36V39.49h-7.07V26.12c0-3.16-.83-4.09-2.62-4.09-1.59,0-2.54.73-3.93,2.07V39.49h-7Z"/><path class="cls-1" d="M125.85,28c0-7.5,5.24-12.12,10.72-12.12,6.51,0,9.69,4.82,9.69,11.14a13.2,13.2,0,0,1-.32,3.08H132.68c.63,3.16,2.78,4.46,5.64,4.46a9.1,9.1,0,0,0,4.76-1.46l2.34,4.34a14.41,14.41,0,0,1-8.1,2.63C130.85,40.06,125.85,35.6,125.85,28Zm14.41-2.6c0-2.31-1-4-3.57-4-1.95,0-3.66,1.26-4.13,4Z"/><polygon class="cls-1" points="95.7 0 88.76 0 90.03 6.33 97 6.33 95.7 0"/><path class="cls-1" d="M25.51,28c0-7.58,4.65-12.12,9.33-12.12a7,7,0,0,1,5.44,2.39L40,14.82V7.12h7.1V39.49H41.36l-.52-2.22h-.16a8.69,8.69,0,0,1-5.92,2.79C29.12,40.06,25.51,35.48,25.51,28ZM40,32.2V23.12a5,5,0,0,0-3.5-1.38c-1.94,0-3.73,1.87-3.73,6.12,0,4.42,1.43,6.29,3.85,6.29A3.66,3.66,0,0,0,40,32.2Z"/><path class="cls-1" d="M49.64,28c0-7.5,5.24-12.12,10.72-12.12,6.52,0,9.69,4.82,9.69,11.14a13.91,13.91,0,0,1-.31,3.08H56.47c.64,3.16,2.78,4.46,5.64,4.46a9.1,9.1,0,0,0,4.77-1.46l2.34,4.34a14.41,14.41,0,0,1-8.1,2.63C54.65,40.06,49.64,35.6,49.64,28Zm14.42-2.6c0-2.31-1-4-3.58-4-1.94,0-3.65,1.26-4.13,4Z"/><path class="cls-1" d="M22.26,27.23H18.84l.62-4.66h3.82l0-5.21H20.15l1-7.84H15.5L14.44,17.4H11.19l1.05-7.88H6.56l-1.08,7.9L1,17.45l0,5.21,3.75,0L4.15,27.3,0,27.32l0,5.21,3.42,0-.95,7H8.26l.94-7.06h3.2l-1,7.07h5.77l.94-7.1,4.13,0Zm-12.37.05.61-4.66h3.23l-.63,4.66Z"/></g></g></svg>