<svg xmlns="http://www.w3.org/2000/svg" width="104.867" height="96.439" viewBox="0 0 104.867 96.439">
  <path id="Path_649" data-name="Path 649" d="M236.991,209.962c-1.558-.055-3.12-.021-4.678-.022-1.852,0-3.7,0-5.655,0,.051-.473.064-.723.107-.967.506-2.915,1-5.832,1.527-8.745.846-4.691-1.562-7.628-6.292-7.64q-3.977-.01-7.955,0c-5.239.01-8.536,2.889-9.371,8.1-.493,3.061-1.078,6.106-1.625,9.187H188.423c.594-3.413,1.156-6.728,1.751-10.037.747-4.157-1.711-7.181-5.956-7.236-2.962-.038-5.927-.027-8.889-.007a8.678,8.678,0,0,0-8.7,7.4c-.5,2.863-1.091,5.714-1.491,8.59-.164,1.189-.679,1.4-1.73,1.378-3.014-.052-6.031-.069-9.044.018a8.492,8.492,0,0,0-7.99,6.873c-.569,3.01-1.1,6.027-1.586,9.052-.779,4.9,1.506,7.541,6.473,7.549,3.11.005,6.22,0,9.475,0-.873,4.961-1.718,9.748-2.583,14.66-3.425,0-6.743-.026-10.06.007-3.716.038-7.27,2.414-8.132,5.906a88.858,88.858,0,0,0-2.029,11.489c-.4,3.624,2.116,6.106,5.824,6.166,2.806.046,5.614.01,8.421.01h1.8c-.621,3.621-1.239,6.989-1.769,10.37-.625,3.98,1.794,6.858,5.794,6.912q4.677.064,9.357,0a8.519,8.519,0,0,0,8.333-7.034c.227-1.172.415-2.353.628-3.528.4-2.224.816-4.448,1.214-6.617h14.552c-.03.313-.036.516-.071.714-.528,3.017-1.052,6.035-1.592,9.05-.79,4.41,1.614,7.384,6.038,7.421,2.756.022,5.511.007,8.267,0,5.2-.008,8.49-2.835,9.322-7.937.5-3.066,1.074-6.121,1.646-9.356,3.359,0,6.525,0,9.693,0a8.663,8.663,0,0,0,8.92-7.505c.467-2.711.928-5.424,1.434-8.13.95-5.086-1.379-7.925-6.572-7.924q-4.545,0-9.087.008l2.409-14.719q4.978,0,9.953,0a8.433,8.433,0,0,0,8.475-7.028q.924-4.738,1.731-9.5A5.668,5.668,0,0,0,236.991,209.962Zm-39.248,38.2q-6.976.008-13.952.012h-1.67l2.414-14.743h.5l15.119,0Z" transform="translate(-137.892 -192.569)" fill="#fff"/>
</svg>
