<svg xmlns="http://www.w3.org/2000/svg" 
  xmlns:xlink="http://www.w3.org/1999/xlink" viewBox="0 0 228.63 540.6">
  <defs>
    <style>.ae8151a4-66c1-4f6d-991b-8e6194594bb2{fill:none;}.ecf64134-2800-4a63-add4-09326a412099{clip-path:url(#f8e4ad50-67c0-4679-98ed-b65af39dd637);}.f830f166-3eb8-4744-ad4c-aec182e2d492{fill:#fff;}</style>
    <clipPath id="f8e4ad50-67c0-4679-98ed-b65af39dd637" transform="translate(0 0)">
      <rect class="ae8151a4-66c1-4f6d-991b-8e6194594bb2" width="228.63" height="540.6" transform="translate(228.63 540.6) rotate(180)"/>
    </clipPath>
  </defs>
  <title>SITCON-taton-cliped</title>
  <g id="a4e26458-a480-44a7-af2e-30ac898321b7" data-name="圖層 2">
    <g id="aada8256-1012-4630-9693-f515ed2a926d" data-name="圖層 1">
      <g class="ecf64134-2800-4a63-add4-09326a412099">
        <path id="b1c0342d-34a9-46e2-9b66-26594963e1cc" data-name="Path 14" class="f830f166-3eb8-4744-ad4c-aec182e2d492" d="M258.55,16.78C290-7.28,327.4,1.6,327.4,1.6s-6.25,44.7-37.71,68.76-76.23,18.37-76.23,18.37A389.34,389.34,0,0,0,233,54.79C238.64,43.58,247,25.66,258.55,16.78Z" transform="translate(0 0)"/>
        <path id="e45e3ed9-4a61-47fa-a88f-a30c8521fbbf" data-name="Path 15" class="f830f166-3eb8-4744-ad4c-aec182e2d492" d="M183,53.19C168.34,42,150.89,46.1,150.89,46.1S153.81,67,168.5,78.2s35.6,8.58,35.6,8.58A180.38,180.38,0,0,1,195,70.93C192.33,65.7,188.46,57.33,183,53.19Z" transform="translate(0 0)"/>
        <path id="b37583d2-e872-4fab-b3db-d20d33600168" data-name="Path 16" class="f830f166-3eb8-4744-ad4c-aec182e2d492" d="M186.61,159.73c4.3,0,8.6.19,12.88.47-3.83-22.86-3.08-46.67,8.67-67.12C187.6,109.64,177.59,135,172.4,160.31,177.13,160,181.86,159.73,186.61,159.73Z" transform="translate(0 0)"/>
        <path id="fad9fb02-d7db-4b27-8c4f-4a2e02456102" data-name="Path 17" class="f830f166-3eb8-4744-ad4c-aec182e2d492" d="M186.61,167.39C83.55,167.39,0,250.94,0,354S83.55,540.6,186.61,540.6s186.6-83.54,186.6-186.6S289.67,167.39,186.61,167.39Zm76.24,262.85-76.24-52.47-76.25,52.47L162.84,354l-52.48-76.25,76.25,52.48,76.24-52.48L210.38,354Z" transform="translate(0 0)"/>
      </g>
    </g>
  </g>
</svg>