<?xml version="1.0" encoding="UTF-8" standalone="no"?>
<svg
   xmlns:dc="http://purl.org/dc/elements/1.1/"
   xmlns:cc="http://creativecommons.org/ns#"
   xmlns:rdf="http://www.w3.org/1999/02/22-rdf-syntax-ns#"
   xmlns:svg="http://www.w3.org/2000/svg"
   xmlns="http://www.w3.org/2000/svg"
   viewBox="0 0 176.11867 69.784798"
   height="69.784798"
   width="176.11867"
   xml:space="preserve"
   id="svg2"
   version="1.1"><metadata
     id="metadata8"><rdf:RDF><cc:Work
         rdf:about=""><dc:format>image/svg+xml</dc:format><dc:type
           rdf:resource="http://purl.org/dc/dcmitype/StillImage" /></cc:Work></rdf:RDF></metadata><defs
     id="defs6"><clipPath
       id="clipPath18"
       clipPathUnits="userSpaceOnUse"><path
         id="path16"
         d="M 0,52.339 H 132.089 V 0 H 0 Z" /></clipPath></defs><g
     transform="matrix(1.3333333,0,0,-1.3333333,0,69.7848)"
     id="g10"><g
       id="g12"><g
         clip-path="url(#clipPath18)"
         id="g14"><g
           transform="translate(12.0516,36.2582)"
           id="g20"><path
             id="path22"
             style="fill:#6a6a6a;fill-opacity:1;fill-rule:nonzero;stroke:none"
             d="m 0,0 7.856,3.038 7.063,3.009 8.33,0.407 c 0,0 0.411,-4.517 0.411,-4.957 0,-0.442 0.183,-11.238 0,-11.886 -0.182,-0.655 -6.02,-7.727 -6.965,-8.381 -0.948,-0.649 -14.445,-2.978 -15.004,-2.7 -0.557,0.282 -3.501,2.018 -4.062,2.623 C -2.927,-18.245 0,0 0,0" /></g><g
           transform="translate(29.0253,42.3055)"
           id="g24"><path
             id="path26"
             style="fill:#6a6a6a;fill-opacity:1;fill-rule:nonzero;stroke:none"
             d="m 0,0 -0.038,-18.24 -18.63,-5.994 17.547,-7.377 9.632,2.569 6.421,1.712 1.863,0.837 c 0,0 1.027,5.77 1.116,6.33 0.094,0.559 -0.373,6.145 0,6.423 0.375,0.279 0.015,7.943 0.015,7.943 l -8.843,3.812 z" /></g><g
           transform="translate(29.0155,43.3871)"
           id="g28"><path
             id="path30"
             style="fill:#6a6a6a;fill-opacity:1;fill-rule:nonzero;stroke:none"
             d="m 0,0 16.883,-4.213 c -0.098,-0.441 0,-17.371 0,-17.371 L 0,-16.665 Z" /></g><g
           transform="translate(49.5155,38.8968)"
           id="g32"><path
             id="path34"
             style="fill:#929537;fill-opacity:1;fill-rule:nonzero;stroke:none"
             d="M 0,0 V 0.005 L -0.004,0 V 0.005 H -0.008 V 0.009 L -0.02,0.005 V 0.009 H -0.023 V 0.012 L -0.027,0.009 V 0.012 H -0.03 V 0.015 L -2.936,0.903 -8.062,-0.61 -8.101,-5.824 c 0,-2.735 -1.962,-3.218 -2.427,-3.36 l -4.704,-1.473 c -0.138,0.303 -0.208,0.594 -0.206,0.87 l 0.015,5.098 -0.006,-0.004 v 0.007 l -0.006,-0.003 v 0.006 l -0.005,-0.003 v 0.003 h -0.006 v 0.003 l -0.004,-0.003 v 0.006 l -0.002,-0.003 v 0.003 h -0.011 -0.002 v 0.006 l -0.008,-0.006 v 0.006 h -0.003 v 0.004 l -0.006,-0.004 v 0.004 h -0.011 v 0.002 0.002 l -0.006,-0.002 v 0.002 h -0.007 v 0.003 l -0.006,-0.003 v 0.006 l -0.004,-0.003 v 0.006 l -0.002,-0.003 v 0.003 h -0.011 v 0.004 l -0.006,-0.004 v 0.008 l -0.002,-0.004 v 0.004 h -0.007 v 0 h -0.004 v 0 h -0.006 v 0.004 l -0.009,-0.004 v 0.004 h -0.002 v 0.007 l -0.008,-0.007 v 0.007 h -0.002 v 10e-4 l -0.006,-10e-4 v 0.004 l -0.007,-0.003 v 0.003 h -0.007 v 0.002 L -15.6,-4.631 v 0.002 h -0.006 v 0.009 l -0.004,-0.004 v 0.004 h -0.004 -0.005 -0.008 -0.008 v 0.005 h -0.002 v 0.002 l -0.006,-0.002 v 0.008 l -0.005,-0.002 v 0.002 h -0.006 v 0.002 l -0.008,-0.002 v 0.002 h -0.005 v 0.002 l -0.006,-0.002 v 0.002 h -0.006 v 0.005 l -0.004,-0.005 v 0.007 l -0.005,-0.002 v 0.005 l -0.01,-0.003 v 0.003 h -0.006 v 0.006 l -10e-4,-0.006 v 0.006 h -0.004 v 0.003 l -0.007,-0.003 v 0.003 h -0.005 -0.009 v 0.005 l -0.006,-0.005 v 0.008 l -0.005,-0.003 v 0.003 h -0.002 v 0.003 l -0.009,-0.003 v 0.003 h -0.01 v 0.006 l -0.006,-0.006 v 0.006 h -0.005 -0.006 v 0.005 l -0.004,-0.005 v 0.007 l -0.006,-0.002 v 0.004 l -0.003,-0.002 v 0.004 L -15.8,-4.558 v 0.004 l -0.003,-0.002 v 0.002 h -0.007 v 0.002 l -0.007,-0.002 v 0.006 l -0.008,-0.004 v 0.006 l -0.003,-0.002 v 0.002 h -0.008 v 0.006 l -0.002,-0.006 v 0.006 h -0.007 -0.004 v 0.001 l -0.006,-0.001 v 0.003 l -0.005,-0.002 v 0.008 l -0.006,-0.006 v 0.006 h -0.008 -0.004 v 0.003 l -0.002,-0.003 v 0.009 l -0.007,-0.006 v 0.006 h -0.009 v 0.002 l -0.006,-0.002 v 0.002 h -0.004 -0.006 v 0.004 l -0.004,-0.002 v 0.006 l -10e-4,-0.004 v 0.004 h -0.012 v 0.002 l -0.005,-0.002 v 0.005 L -15.94,-4.51 v 0.003 h -0.004 v 0.003 l -0.006,-0.003 v 0.006 l -0.004,-0.003 v 0.003 H -15.96 V -4.5 l -0.004,-0.001 v 0.005 L -15.972,-4.5 v 0.007 l -0.008,-0.003 v 0.003 h -0.005 v 0.002 l -0.004,-0.002 v 0.003 l -0.008,-10e-4 v 0.006 H -16 h -0.006 -0.01 v 0.005 h -0.005 v 0.002 l -0.004,-0.002 v 0.006 l -0.008,-0.004 v 0.005 l -0.008,-0.001 v 0.001 h -0.003 v 0.004 l -0.008,-0.004 v 0.004 h -0.013 v 0.004 l -0.002,-0.004 v 0.006 h -0.006 v 0.002 h -0.006 v 0.002 l -0.005,-0.002 v 0.007 l -0.004,-0.005 v 0.005 h -0.007 v 0.005 l -0.008,-0.005 v 0.005 h -0.002 -0.005 v 0.005 l -0.007,-0.005 v 0.005 h -0.007 v 0.003 l -0.002,-0.003 v 0.003 h -0.009 -0.002 v 0.004 h -0.008 v 0.004 l -0.005,-0.004 v 0.004 h -0.008 -0.002 v 0.006 l -0.006,-0.006 v 0.006 h -0.007 v 0.002 l -0.008,-0.002 v 0.005 l -0.002,-0.003 v 0.007 l -0.007,-0.004 v 0.004 h -0.004 -0.003 v 0.004 l -0.012,-0.004 v 0.004 0.002 l -0.008,-0.002 v 0.002 h -0.007 v 0.005 l -0.004,-0.005 v 0.007 l -0.005,-0.002 v 0.002 h -0.006 v 0.004 l -0.006,-0.004 v 0.008 l -0.005,-0.004 v 0.004 h -0.006 v 0.002 l -0.004,-0.002 v 0.004 l -0.006,-0.002 v 0.002 h -0.005 v 0.004 h -0.008 v 0.002 h -0.004 -0.008 v 0.005 h -0.01 v 0.004 l -0.005,-0.004 v 0.004 h -0.005 v 0.002 l -0.004,-0.002 v 0.007 l -0.008,-0.005 v 0.005 h -0.004 v 0.002 l -0.006,-0.002 v 0.004 l -0.005,-0.002 v 0.002 h -0.009 -0.002 v 0.002 h -0.004 v 0.005 h -0.007 v 0.001 l -0.004,-0.001 v 0.001 h -0.008 v 0.005 l -0.007,-0.005 v 0.008 l -0.004,-0.003 v 0.004 l -0.006,-0.001 v 0.004 l -0.008,-0.003 v 0.004 L -16.4,-4.347 v 0.001 h -0.008 -0.002 v 0.006 l -0.007,-0.006 v 0.006 h -0.004 v 10e-4 l -0.01,-10e-4 v 0.005 l -0.002,-0.004 v 0.004 h -0.005 v 0.004 l -0.004,-0.004 v 0.006 l -0.011,-0.002 v 0.002 h -0.005 -0.001 v 0.006 l -0.009,-0.006 v 0.006 h -0.006 v 0.004 h -0.004 v 0.002 h -0.006 v 0.002 l -0.005,-0.002 v 0.007 l -0.004,-0.002 v 0.002 h -0.006 -0.009 -0.006 v 0.006 l -0.002,-0.006 v 0.006 h -0.005 v 0.002 l -0.004,-0.002 V -4.3 h -0.008 v 0.005 L -16.54,-4.3 v 0.005 h -0.004 v 0.002 l -0.008,-0.002 v 0.002 h -0.004 -0.004 v 0.004 l -0.001,-0.003 v 0.003 h -0.011 v 0.006 h -0.006 v 0.002 l -0.005,-0.002 v 0.002 h -0.006 v 0.005 l -0.004,-0.005 v 0.005 h -0.008 v 0.003 l -0.007,-0.003 v 0.003 h -0.002 v 0.004 l -0.004,-0.004 v 0.004 h -0.008 -0.006 v 0.005 l -0.005,-0.005 v 0.006 l -0.002,-0.001 v 0.003 l -0.011,-0.002 v 0.006 l -0.004,-0.004 v 0.004 h -0.006 v 0.002 l -0.008,-0.002 v 0.006 l -0.003,-0.004 v 0.004 h -0.002 -0.011 v 0.006 0.004 l -0.008,-0.004 v 0.006 l -0.008,-0.002 v 0.002 h -0.005 -0.006 v 0.004 h -0.005 v 0.002 l -0.004,-0.002 v 0.002 h -0.006 -0.009 v 0.004 l -0.002,-0.004 v 0.004 h -0.007 v 0.004 l -0.007,-0.004 v 0.004 h -0.005 v 0.004 l -0.006,-0.004 v 0.004 h -0.004 v 0.006 l -0.002,-0.006 v 0.007 l -0.006,-10e-4 v 10e-4 h -0.009 -0.004 v 0.005 h -0.008 v 0.004 l -0.003,-0.004 v 0.004 H -16.8 v 0.001 l -0.006,-0.001 v 0.001 h -0.009 v 0.006 l -0.002,-0.006 v 0.006 h -0.007 -0.002 v 0.004 l -0.009,-0.004 v 0.004 h -0.003 v 0.005 h -0.003 -0.012 -0.003 v 0.004 l -0.007,-0.004 v 0.01 l -0.003,-0.006 v 0.006 h -0.006 -0.004 v 0.004 l -0.011,-0.004 v 0.004 h -0.002 v 10e-4 l -0.006,-10e-4 V -4.17 L -16.9,-4.174 v 0.007 l -0.006,-0.003 v 0.003 h -0.01 v 0.005 h -0.003 -0.006 v 0.004 l -0.008,-0.004 v 0.004 h -0.007 v 0.005 h -0.003 -0.002 -0.01 v 0.004 l -0.005,-0.004 v 0.007 l -0.006,-0.003 v 0.003 0.003 h -0.012 v 0.003 l -0.004,-0.003 v 0.003 h -0.009 v 0.002 h -0.006 -0.008 v 0.007 l -0.007,-0.007 v 0.01 l -0.002,-0.003 v 0.003 h -0.009 -0.006 v 0.006 l -0.004,-0.006 v 0.008 l -0.007,-0.002 v 0.002 h -0.008 v 0.003 l -0.001,-0.003 v 0.003 h -0.007 v 0.005 l -0.006,-0.005 v 0.007 l -0.003,-0.002 v 0.002 h -0.009 -0.002 v 0.007 l -0.009,-0.007 v 0.007 h -0.007 v 10e-4 l -0.003,-10e-4 v 0.004 l -0.008,-0.003 v 0.003 0.003 l -0.009,-0.003 v 0.003 h -0.006 -0.004 -0.003 v 0.01 l -0.008,-0.004 v 0.004 h -0.004 v 0.002 l -0.005,-0.002 v 0.002 h -0.01 -0.006 v 0.005 l -0.004,-0.005 v 0.009 l -0.001,-0.004 v 0.004 h -0.008 -0.003 v 0.002 l -0.01,-0.002 v 0.005 h -0.004 -0.007 v 0.004 h -0.004 v 0.003 l -0.008,-0.003 v 0.004 l -0.003,-10e-4 v 0.003 l -0.008,-0.002 v 0.002 h -0.002 -0.006 v 0.008 l -1.002,0.248 -5.33,-1.527 -0.009,-8.435 c 0,-0.332 0.068,-0.766 0.278,-1.294 0.208,-0.528 0.512,-1.03 0.92,-1.508 0.41,-0.477 0.934,-0.827 1.577,-1.045 l 2.779,-0.979 c 0.643,-0.221 1.378,-0.209 2.203,0.041 l 8.404,2.566 v -0.035 c 0,-2.379 -0.412,-4.01 -2.428,-4.527 l -13.733,-4.174 v -4.782 l 3.067,-0.924 4.649,1.51 11.585,3.536 c 0.68,0.206 1.348,0.623 2.003,1.246 0.655,0.621 1.189,1.356 1.594,2.206 0.409,0.852 0.61,1.697 0.617,2.533 l 0.038,12.173 v 0.096 L 0.008,0 Z" /></g><g
           transform="translate(21.6405,39.8304)"
           id="g36"><path
             id="path38"
             style="fill:#c2cd08;fill-opacity:1;fill-rule:nonzero;stroke:none"
             d="m 0,0 5.048,1.562 c 0.023,0.007 2.345,0.709 4.99,-0.12 0.002,0 12.845,-3.963 12.845,-3.963 l 5.709,1.79 -15.3,4.794 C 7.689,5.813 1.454,3.88 1.454,3.88 l -15.381,-4.814 21.302,-6.301 5.361,1.612 -12.861,4.052 C -2.566,-0.767 0,0 0,0" /></g><g
           transform="translate(20.0375,31.641)"
           id="g40"><path
             id="path42"
             style="fill:#808331;fill-opacity:1;fill-rule:nonzero;stroke:none"
             d="m 0,0 12.251,-3.743 v 0.954 l -0.068,0.003 -21.548,6.392 v -14.513 0.379 c 0,-5.268 3.641,-6.273 4.331,-6.478 l 17.285,-6.424 v 6.024 L 0,-13.803 c -0.384,0.111 -3.522,0.732 -3.522,3.965 0,0.185 -0.046,7.434 -0.046,7.434 0,3.931 3.184,2.509 3.568,2.404" /></g><g
           transform="translate(44.5238,37.3099)"
           id="g44"><path
             id="path46"
             style="fill:#c2cd08;fill-opacity:1;fill-rule:nonzero;stroke:none"
             d="m 0,0 -0.04,-5.216 c 0,-2.161 -1.964,-3.217 -2.431,-3.36 l -5.507,-1.721 c -0.393,-0.121 -0.753,-0.07 -1.085,0.144 -0.331,0.212 -0.596,0.512 -0.794,0.882 -0.207,0.378 -0.306,0.731 -0.306,1.071 l 0.016,5.098 -5.361,-1.612 v -8.444 c 0,-0.327 0.067,-0.765 0.279,-1.293 0.208,-0.529 0.514,-1.032 0.925,-1.506 0.404,-0.479 0.927,-0.829 1.568,-1.048 0.642,-0.222 1.375,-0.209 2.204,0.041 l 11.216,3.421 -0.029,-3.122 c 0,-2.66 -1.963,-3.126 -2.427,-3.268 l -13.736,-4.195 v -5.97 l 4.934,1.511 12.01,3.679 c 0.679,0.21 4.212,1.294 4.212,6.048 L 5.709,1.789 Z" /></g><g
           transform="translate(16.9422,30.3324)"
           id="g48"><path
             id="path50"
             style="fill:#929537;fill-opacity:1;fill-rule:nonzero;stroke:none"
             d="M 0,0 12.073,-3.688 V 2.263 L 12.005,2.265 -9.229,8.564 v -19.332 -0.864 c 0,-5.191 3.588,-6.066 4.269,-6.269 l 17.033,-5.219 v 5.949 L 0,-13.455 c -0.378,0.109 -3.47,0.556 -3.47,3.742 0,0.182 -0.046,7.344 -0.046,7.344 0,3.874 3.138,2.473 3.516,2.369" /></g><g
           transform="translate(29.0194,13.9955)"
           id="g52"><path
             id="path54"
             style="fill:#ffffff;fill-opacity:1;fill-rule:nonzero;stroke:none"
             d="M 0,0 V -5.958 Z" /></g><g
           transform="translate(29.0194,13.9955)"
           id="g56"><path
             id="path58"
             style="fill:none;stroke:#332d2b;stroke-width:1;stroke-linecap:butt;stroke-linejoin:miter;stroke-miterlimit:10;stroke-dasharray:none;stroke-opacity:1"
             d="M 0,0 V -5.958 Z" /></g><g
           transform="translate(29.0194,14.225)"
           id="g60"><path
             id="path62"
             style="fill:#ffffff;fill-opacity:1;fill-rule:nonzero;stroke:none"
             d="M 0,0 V -0.229 Z" /></g><g
           transform="translate(29.0194,14.225)"
           id="g64"><path
             id="path66"
             style="fill:none;stroke:#332d2b;stroke-width:1;stroke-linecap:butt;stroke-linejoin:miter;stroke-miterlimit:10;stroke-dasharray:none;stroke-opacity:1"
             d="M 0,0 V -0.229 Z" /></g><g
           transform="translate(29.0194,14.6449)"
           id="g68"><path
             id="path70"
             style="fill:#ffffff;fill-opacity:1;fill-rule:nonzero;stroke:none"
             d="m 0,0 v -0.42 0.419 z" /></g><g
           transform="translate(29.0194,14.6449)"
           id="g72"><path
             id="path74"
             style="fill:none;stroke:#332d2b;stroke-width:1;stroke-linecap:butt;stroke-linejoin:miter;stroke-miterlimit:10;stroke-dasharray:none;stroke-opacity:1"
             d="m 0,0 v -0.42 0.419 z" /></g><g
           transform="translate(35.4862,17.2836)"
           id="g76"><path
             id="path78"
             style="fill:#c2cd08;fill-opacity:1;fill-rule:nonzero;stroke:none"
             d="M 0,0 V 0 L -0.003,0.002 C -0.112,0.036 -0.241,0.038 -0.379,-0.005 L -6.467,-1.784 V -2.572 -2.573 -2.639 -2.64 -3.059 -3.288 -6.504 -9.247 c 10e-4,-0.391 0.318,-0.61 0.708,-0.49 l 5.38,1.644 c 0.391,0.119 0.708,0.533 0.708,0.924 v 6.673 C 0.329,-0.245 0.197,-0.065 0,0" /></g><g
           transform="translate(29.0194,13.9955)"
           id="g80"><path
             id="path82"
             style="fill:#929537;fill-opacity:1;fill-rule:nonzero;stroke:none"
             d="m 0,0 v 0.229 0.42 C 0,0.658 -0.001,0.667 -0.001,0.676 V 1.504 L -6.088,3.217 C -6.227,3.26 -6.356,3.259 -6.466,3.223 -6.664,3.158 -6.796,2.978 -6.796,2.726 v -6.672 c 0,-0.391 0.317,-0.805 0.708,-0.925 l 5.38,-1.645 C -0.317,-6.635 0,-6.414 0,-6.023 v 0.064 10e-4 z" /></g><g
           transform="translate(29.9471,18.9828)"
           id="g84"><path
             id="path86"
             style="fill:#808331;fill-opacity:1;fill-rule:nonzero;stroke:none"
             d="m 0,0 c -0.928,0.285 -1.406,0.053 -1.406,0.053 l -5.988,-1.817 v -10e-4 c 0.11,0.036 0.239,0.037 0.378,-0.006 0,0 5.408,-1.712 5.989,-1.712 0.634,0 6.187,1.779 6.187,1.779 0.138,0.043 0.267,0.041 0.376,0.007 z" /></g><g
           transform="translate(106.4652,28.743)"
           id="g88"><path
             id="path90"
             style="fill:#332d2b;fill-opacity:1;fill-rule:nonzero;stroke:none"
             d="M 0,0 H -6.49 V 0.54 H -8.496 V 0 h -6.424 v -1.567 h 6.424 v -3.194 h 2.006 v 3.194 H 0 Z" /></g><g
           transform="translate(96.8255,26.3788)"
           id="g92"><path
             id="path94"
             style="fill:#332d2b;fill-opacity:1;fill-rule:nonzero;stroke:none"
             d="m 0,0 h -2.244 l -0.469,-0.648 c -0.139,-0.19 -0.363,-0.281 -0.655,-0.281 H -5.28 v -1.332 h 2.938 c 0.592,0 0.997,0.183 1.244,0.573 z" /></g><g
           transform="translate(103.3382,24.1175)"
           id="g96"><path
             id="path98"
             style="fill:#332d2b;fill-opacity:1;fill-rule:nonzero;stroke:none"
             d="M 0,0 H 3.194 V 1.333 H 1.356 c -0.355,0 -0.604,0.09 -0.741,0.276 L 0.157,2.261 H -2.094 L -1.055,0.573 C -0.77,0.188 -0.42,0 0,0" /></g><g
           transform="translate(86.6937,32.1449)"
           id="g100"><path
             id="path102"
             style="fill:#332d2b;fill-opacity:1;fill-rule:nonzero;stroke:none"
             d="M 0,0 V -5.743 C 0,-6.157 -0.34,-6.494 -0.756,-6.494 H -5.551 V 0 Z M -4.329,3.983 H 1.692 V 5.817 H -3.59 L -3.102,7.05 H -5.465 L -5.923,5.817 H -9.086 V 5.807 4.161 3.983 h 2.458 L -6.799,3.524 -7.59,1.468 C -7.873,0.678 -8.268,0.276 -8.759,0.276 h -1.006 v -0.149 -1.83 h 0.27 l 2.248,-0.002 V -8.19 h 6.491 c 1.355,0 2.448,1.095 2.448,2.447 v 7.439 h -6.49 -0.449 z" /></g><g
           transform="translate(75.2191,39.1947)"
           id="g104"><path
             id="path106"
             style="fill:#332d2b;fill-opacity:1;fill-rule:nonzero;stroke:none"
             d="M 0,0 -0.881,-3.209 C -1.07,-3.906 -1.384,-4.257 -1.815,-4.257 h -0.329 v -2.042 h 1.097 v -9.011 h 2.11 V -3.812 L 2.313,0 Z" /></g><path
           id="path108"
           style="fill:#332d2b;fill-opacity:1;fill-rule:nonzero;stroke:none"
           d="m 98.93,35.772 h -4.634 v 1.19 h 4.634 z m 0,-2.282 h -4.634 v 1.124 h 4.634 z m 0,-2.228 h -4.634 v 1.05 h 4.634 z m 7.67,0 h -5.746 v 1.05 h 5.325 v 1.178 h -5.325 v 1.123 h 5.325 v 1.159 h -5.325 v 1.19 h 5.679 v 1.18 h -5.514 l 0.186,1.03 h -2.036 l -0.203,-1.03 h -4.148 l 0.393,1.03 H 93.129 L 92.701,37.943 C 92.57,37.469 92.267,37.395 92.098,37.395 H 91.48 v -1.786 h 0.893 V 29.66 h 1.923 v 0.357 H 106.6 Z" /><g
           transform="translate(115.141,25.8226)"
           id="g110"><path
             id="path112"
             style="fill:#332d2b;fill-opacity:1;fill-rule:nonzero;stroke:none"
             d="M 0,0 H 1.519 V 0.688 H 1.103 c -0.285,0 -0.399,0.151 -0.439,0.245 L 0.497,1.228 H -1.207 L -0.601,0.305 C -0.436,0.103 -0.238,0 0,0" /></g><path
           id="path114"
           style="fill:#332d2b;fill-opacity:1;fill-rule:nonzero;stroke:none"
           d="m 116.495,33.613 h -1.862 v 0.797 h 1.862 z m 0,-1.606 h -1.862 v 0.764 h 1.862 z m 1.566,0.763 h 1.733 v -0.291 c 0,-0.427 -0.228,-0.472 -0.324,-0.472 h -1.409 z m 0,1.641 h 1.733 v -0.797 h -1.733 z m 1.477,-4.099 h -1.477 v 0.713 h 2.352 l -0.061,-0.127 0.585,0.171 c 0.302,0.091 0.436,0.333 0.436,0.768 v 3.546 h -3.312 v 0.766 h 3.675 v 0.993 h -3.675 v 0.253 h -1.566 v -0.253 h -3.871 v -0.993 h 3.871 v -0.766 h -3.445 v -4.358 h 3.445 v -0.713 h -3.937 v -0.975 h 6.355 v -0.73 h -6.133 v -0.975 h 6.133 v -0.509 c 0,-0.19 -0.116,-0.39 -0.44,-0.39 h -1.099 v -0.977 h 2.164 c 0.933,0 1.045,0.353 1.045,0.623 v 1.253 h 1.153 v 0.975 h -1.153 v 0.747 l 0.169,0.016 c 0.31,0.032 0.558,0.124 0.74,0.279 0.245,0.209 0.403,0.562 0.482,1.054 h -1.726 c -0.145,-0.255 -0.39,-0.391 -0.71,-0.391" /><g
           transform="translate(123.0111,26.3202)"
           id="g116"><path
             id="path118"
             style="fill:#332d2b;fill-opacity:1;fill-rule:nonzero;stroke:none"
             d="M 0,0 C 0,-0.508 -0.411,-0.918 -0.919,-0.918 H -11.474 V 11.417 L 0,11.417 Z M 1.364,12.782 H -12.838 V -2.283 h 11.919 c 1.26,0 2.283,1.019 2.283,2.283 z" /></g><g
           transform="translate(67.9667,29.2074)"
           id="g120"><path
             id="path122"
             style="fill:#332d2b;fill-opacity:1;fill-rule:nonzero;stroke:none"
             d="m 0,0 c 0,-0.197 -0.158,-0.352 -0.354,-0.352 h -3.985 v 5.446 l 4.339,0 z m -6.41,-0.352 h -4.204 V 5.094 H -6.41 Z M 1.929,7.019 H -4.339 V 9.895 H -6.41 V 7.019 h -6.133 v -9.304 h 6.133 v -2.939 h 2.071 v 2.939 h 3.985 c 1.26,0 2.283,1.028 2.283,2.285 z" /></g><g
           transform="translate(60.3944,14.2504)"
           id="g124"><path
             id="path126"
             style="fill:#332d2b;fill-opacity:1;fill-rule:nonzero;stroke:none"
             d="m 0,0 c -0.296,-0.148 -0.898,-0.296 -1.667,-0.296 -1.973,0 -3.297,1.306 -3.297,3.566 0,2.408 1.519,3.723 3.482,3.723 0.815,0 1.315,-0.176 1.51,-0.278 l -0.232,-0.88 c -0.296,0.14 -0.713,0.26 -1.241,0.26 -1.37,0 -2.389,-0.927 -2.389,-2.77 0,-1.741 0.907,-2.714 2.371,-2.714 0.481,0 0.972,0.102 1.278,0.25 z" /></g><g
           transform="translate(65.5926,14.056)"
           id="g128"><path
             id="path130"
             style="fill:#332d2b;fill-opacity:1;fill-rule:nonzero;stroke:none"
             d="M 0,0 H -0.906 V 2.719 H -3.344 V 0 H -4.25 v 5.984 h 0.906 V 3.516 h 2.438 V 5.984 H 0 Z" /></g><g
           transform="translate(71.0428,16.4935)"
           id="g132"><path
             id="path134"
             style="fill:#332d2b;fill-opacity:1;fill-rule:nonzero;stroke:none"
             d="m 0,0 c 0,-1.773 -0.883,-2.523 -2.156,-2.523 -1.227,0 -2.055,0.718 -2.055,2.5 v 3.562 h 0.906 v -3.617 c 0,-1.195 0.492,-1.703 1.18,-1.703 0.75,0 1.219,0.515 1.219,1.703 v 3.617 l 0.906,0 z" /></g><g
           transform="translate(76.5638,14.056)"
           id="g136"><path
             id="path138"
             style="fill:#332d2b;fill-opacity:1;fill-rule:nonzero;stroke:none"
             d="m 0,0 h -0.914 l -1.57,2.797 C -2.844,3.445 -3.203,4.148 -3.477,4.82 L -3.508,4.812 C -3.461,4.055 -3.445,3.281 -3.445,2.234 V 0 h -0.836 v 5.977 h 0.984 l 1.563,-2.766 c 0.375,-0.656 0.711,-1.344 0.968,-1.977 l 0.024,0.008 C -0.812,2.055 -0.836,2.82 -0.836,3.773 V 5.977 H 0 Z" /></g><g
           transform="translate(82.1161,14.2982)"
           id="g140"><path
             id="path142"
             style="fill:#332d2b;fill-opacity:1;fill-rule:nonzero;stroke:none"
             d="m 0,0 c -0.336,-0.133 -0.992,-0.305 -1.703,-0.305 -2.586,0 -2.914,2.055 -2.914,3.008 0,1.938 1.273,3.094 3.062,3.094 0.586,0 1.094,-0.102 1.391,-0.25 L -0.367,4.805 c -0.281,0.125 -0.641,0.226 -1.188,0.226 -1.226,0 -2.109,-0.773 -2.109,-2.289 0,-1.508 0.82,-2.305 1.992,-2.305 0.391,0 0.664,0.055 0.797,0.125 V 2.25 h -1.031 v 0.727 l 1.906,0 z" /></g><g
           transform="translate(89.7884,21.142)"
           id="g144"><path
             id="path146"
             style="fill:#332d2b;fill-opacity:1;fill-rule:nonzero;stroke:none"
             d="M 0,0 -2.195,-4.095 V -7.086 H -3.27 v 2.964 L -5.354,0 h 1.214 l 0.833,-1.853 c 0.232,-0.518 0.436,-0.963 0.621,-1.463 h 0.019 c 0.176,0.472 0.389,0.945 0.62,1.472 L -1.204,0 Z" /></g><g
           transform="translate(91.0638,17.0326)"
           id="g148"><path
             id="path150"
             style="fill:#332d2b;fill-opacity:1;fill-rule:nonzero;stroke:none"
             d="m 0,0 c 0,-1.211 0.547,-2.32 1.578,-2.32 1.047,0 1.586,1.086 1.586,2.359 0,1.141 -0.5,2.313 -1.57,2.313 C 0.492,2.352 0,1.172 0,0 m 4.117,0.07 c 0,-2.078 -1.117,-3.133 -2.57,-3.133 -1.524,0 -2.5,1.235 -2.5,3.04 0,1.882 1.047,3.117 2.578,3.117 1.586,0 2.492,-1.305 2.492,-3.024" /></g><g
           transform="translate(103.3939,14.3431)"
           id="g152"><path
             id="path154"
             style="fill:#332d2b;fill-opacity:1;fill-rule:nonzero;stroke:none"
             d="m 0,0 c -0.398,-0.157 -1.176,-0.361 -2.019,-0.361 -3.066,0 -3.455,2.436 -3.455,3.566 0,2.297 1.51,3.667 3.631,3.667 0.695,0 1.297,-0.12 1.649,-0.296 l -0.242,-0.88 c -0.333,0.149 -0.758,0.269 -1.407,0.269 -1.454,0 -2.501,-0.917 -2.501,-2.714 0,-1.787 0.973,-2.732 2.362,-2.732 0.463,0 0.788,0.065 0.945,0.148 V 2.668 H -2.26 V 3.529 H 0 Z" /></g><g
           transform="translate(106.0716,17.267)"
           id="g156"><path
             id="path158"
             style="fill:#332d2b;fill-opacity:1;fill-rule:nonzero;stroke:none"
             d="m 0,0 c 0.75,0 1.219,0.43 1.219,1.07 0,0.774 -0.547,1.039 -1.196,1.039 -0.304,0 -0.523,-0.023 -0.632,-0.054 L -0.609,0 Z M 1.055,-0.367 C 1.5,-0.531 1.75,-0.953 1.891,-1.586 2.07,-2.367 2.219,-2.984 2.336,-3.211 H 1.398 C 1.312,-3.039 1.172,-2.516 1.023,-1.781 0.859,-0.984 0.57,-0.68 -0.062,-0.68 h -0.547 v -2.531 h -0.899 v 5.899 c 0.383,0.07 0.914,0.125 1.453,0.125 0.782,0 1.328,-0.141 1.703,-0.477 0.313,-0.273 0.477,-0.688 0.477,-1.172 0,-0.766 -0.469,-1.289 -1.07,-1.516 z" /></g><g
           transform="translate(109.849,17.0326)"
           id="g160"><path
             id="path162"
             style="fill:#332d2b;fill-opacity:1;fill-rule:nonzero;stroke:none"
             d="m 0,0 c 0,-1.211 0.547,-2.32 1.578,-2.32 1.047,0 1.586,1.086 1.586,2.359 0,1.141 -0.5,2.313 -1.57,2.313 C 0.492,2.352 0,1.172 0,0 m 4.117,0.07 c 0,-2.078 -1.117,-3.133 -2.57,-3.133 -1.524,0 -2.5,1.235 -2.5,3.04 0,1.882 1.047,3.117 2.578,3.117 1.586,0 2.492,-1.305 2.492,-3.024" /></g><g
           transform="translate(119.1039,16.4935)"
           id="g164"><path
             id="path166"
             style="fill:#332d2b;fill-opacity:1;fill-rule:nonzero;stroke:none"
             d="m 0,0 c 0,-1.773 -0.883,-2.523 -2.156,-2.523 -1.227,0 -2.055,0.718 -2.055,2.5 v 3.562 h 0.906 v -3.617 c 0,-1.195 0.492,-1.703 1.18,-1.703 0.75,0 1.219,0.515 1.219,1.703 v 3.617 l 0.906,0 z" /></g><g
           transform="translate(121.2416,17.1263)"
           id="g168"><path
             id="path170"
             style="fill:#332d2b;fill-opacity:1;fill-rule:nonzero;stroke:none"
             d="m 0,0 c 0.133,-0.039 0.297,-0.047 0.508,-0.047 0.828,0 1.328,0.43 1.328,1.195 0,0.727 -0.5,1.094 -1.227,1.094 C 0.328,2.242 0.117,2.211 0,2.188 Z m -0.898,2.836 c 0.359,0.062 0.836,0.117 1.453,0.117 0.734,0 1.289,-0.156 1.648,-0.476 0.336,-0.289 0.539,-0.743 0.539,-1.29 0,-1.453 -1.156,-1.953 -2.234,-1.953 -0.188,0 -0.36,0.008 -0.508,0.039 V -3.07 h -0.898 z" /></g></g></g></g></svg>