<svg xmlns="http://www.w3.org/2000/svg" viewBox="0 0 113.53 127.87"><defs><style>.cls-1{fill:#231815;}.cls-2{fill:#c9caca;}</style></defs><title>LOGO-Dark</title><g id="圖層_2" data-name="圖層 2"><g id="圖層_2-2" data-name="圖層 2"><path class="cls-1" d="M53.73,8.68,55.26,0H18L16.42,8.68H0V46H9.84L5.72,69.34H0v45.53H35l1.45-8.22H59.8l-1.45,8.22H95.66l1.45-8.22h16.42V69.34h-9.84L107.81,46h5.72V0H78.61L77.08,8.68ZM66.38,69.34H43L47.15,46H70.5Z"/><path class="cls-1" d="M0,126.85l1-1.17a2.88,2.88,0,0,0,1.73.72c.63,0,.92-.24.92-.62s-.39-.54-1-.8l-.9-.38a2.07,2.07,0,0,1-1.44-1.94,2.32,2.32,0,0,1,2.57-2.15,3.35,3.35,0,0,1,2.31.93l-.85,1.07A2.33,2.33,0,0,0,2.84,122c-.52,0-.85.21-.85.59s.45.54,1.08.79l.89.35a2,2,0,0,1,1.4,2c0,1.18-1,2.22-2.71,2.22A4,4,0,0,1,0,126.85Z"/><path class="cls-1" d="M16.07,120.64h1.71v7.1H16.07Z"/><path class="cls-1" d="M30.32,122.05H28.4v-1.41H34v1.41H32v5.69h-1.7Z"/><path class="cls-1" d="M43.94,124.23a3.42,3.42,0,0,1,3.39-3.72,3,3,0,0,1,2.15.93l-.9,1.08a1.76,1.76,0,0,0-1.22-.55c-.92,0-1.67.82-1.67,2.2s.65,2.23,1.65,2.23a1.81,1.81,0,0,0,1.35-.65l.9,1.07a3,3,0,0,1-2.32,1.05A3.29,3.29,0,0,1,43.94,124.23Z"/><path class="cls-1" d="M59.43,124.15c0-2.32,1.31-3.64,3.25-3.64s3.25,1.33,3.25,3.64-1.32,3.72-3.25,3.72S59.43,126.48,59.43,124.15Zm4.76,0c0-1.37-.58-2.18-1.51-2.18s-1.51.81-1.51,2.18.57,2.25,1.51,2.25S64.19,125.53,64.19,124.15Z"/><path class="cls-1" d="M76.78,120.64h1.73l1.77,3.4.69,1.57h0a21.28,21.28,0,0,1-.23-2.62v-2.35h1.62v7.1H80.68l-1.76-3.43-.69-1.55h0c.08.79.22,1.76.22,2.62v2.36H76.78Z"/><path class="cls-2" d="M93.18,126.76c1.77-1.61,3-2.89,3-3.92a.88.88,0,0,0-.92-1,1.73,1.73,0,0,0-1.21.68l-.92-.91a3,3,0,0,1,2.35-1.1,2.16,2.16,0,0,1,2.33,2.23c0,1.22-1,2.57-2.13,3.66a9.34,9.34,0,0,1,1.15-.09h1.3v1.43H93.18Z"/><path class="cls-2" d="M108.51,124.15c0-2.44,1-3.64,2.5-3.64s2.52,1.22,2.52,3.64-1,3.72-2.52,3.72S108.51,126.59,108.51,124.15Zm3.42,0c0-1.93-.41-2.33-.92-2.33s-.9.4-.9,2.33.4,2.4.9,2.4S111.93,126.1,111.93,124.15Z"/></g></g></svg>